<?xml version="1.0" encoding="utf-8"?>
<!-- Generator: Adobe Illustrator 16.0.0, SVG Export Plug-In . SVG Version: 6.00 Build 0)  -->
<!DOCTYPE svg PUBLIC "-//W3C//DTD SVG 1.1//EN" "http://www.w3.org/Graphics/SVG/1.1/DTD/svg11.dtd">
<svg version="1.1" id="Isolation_Mode" xmlns="http://www.w3.org/2000/svg" xmlns:xlink="http://www.w3.org/1999/xlink" x="0px"
	 y="0px" width="135px" height="36px" viewBox="0 0 803 212.989" enable-background="new 0 0 803 212.989"
	 xml:space="preserve">
<g id="XMLID_72_">
	<g id="XMLID_75_">
		<path id="XMLID_77_" fill="#EAA821" d="M137.287,121.34c11.023-35.745,13.38-74.08,7.178-110.957
			c-10.918-3.878-22.668-5.996-34.916-5.996c-27.58,0-52.656,10.71-71.308,28.192c15.231,5.135,29.829,13.062,42.548,21.878
			C105.628,71.676,125.076,96.883,137.287,121.34z"/>
		<path id="XMLID_76_" fill="#0F2C4D" d="M182.301,33.96c-5.238,55.415-21.731,109.778-48.449,158.618
			C107.124,144.104,61.089,101.67,8.557,82.531c-2.159,8.359-3.309,17.124-3.309,26.157c0,57.604,46.697,104.301,104.301,104.301
			c57.604,0,104.302-46.697,104.302-104.301C213.851,79.383,201.76,52.907,182.301,33.96z"/>
	</g>
	<linearGradient id="XMLID_2_" gradientUnits="userSpaceOnUse" x1="39.521" y1="174.9468" x2="61.6658" y2="159.4408">
		<stop  offset="0" style="stop-color:#006DA6"/>
		<stop  offset="0.1234" style="stop-color:#006098;stop-opacity:0.8766"/>
		<stop  offset="0.4118" style="stop-color:#00457D;stop-opacity:0.5882"/>
		<stop  offset="0.6645" style="stop-color:#00326C;stop-opacity:0.3355"/>
		<stop  offset="0.8691" style="stop-color:#002562;stop-opacity:0.1309"/>
		<stop  offset="1" style="stop-color:#02205F;stop-opacity:0"/>
	</linearGradient>
	<path id="XMLID_73_" fill="url(#XMLID_2_)" d="M17.463,135.127c0,0,12.535,48.05,63.371,66.157
		C80.834,201.284,71.084,142.091,17.463,135.127z"/>
</g>
<g>
	<path d="M323.991,64.627v35.5h-17.75v104h-42.75v-104h-13v-35.5h13v-5.25c0-17.664,4.707-30.582,14.125-38.75
		c9.414-8.164,24.207-12.25,44.375-12.25v36.25c-5.668,0-9.711,1.086-12.125,3.25c-2.418,2.168-3.625,6-3.625,11.5v5.25H323.991z"/>
	<path d="M391.741,205.877c-20.336,0-37-6.539-50-19.625c-13-13.082-19.5-30.457-19.5-52.125c0-21.664,6.457-38.914,19.375-51.75
		c12.914-12.832,29.625-19.25,50.125-19.25s37.5,6.336,51,19c13.5,12.668,20.25,30.25,20.25,52.75c0,4.836-0.336,9.336-1,13.5h-96
		c0.832,6.168,3.582,11.211,8.25,15.125c4.664,3.918,9.707,5.875,15.125,5.875c5.414,0,9.457-0.539,12.125-1.625
		c2.664-1.082,4.625-2.164,5.875-3.25c1.25-1.082,2.875-2.875,4.875-5.375h46.25c-4,14-12,25.293-24,33.875
		C422.491,201.588,408.241,205.877,391.741,205.877z M409.991,105.752c-5-4.082-10.918-6.125-17.75-6.125
		c-6.836,0-12.586,2.043-17.25,6.125c-4.668,4.086-7.586,9.375-8.75,15.875h52.25C417.823,115.127,414.991,109.838,409.991,105.752z
		"/>
	<path d="M475.988,204.127v-185h42.75v185H475.988z"/>
	<path d="M552.862,186.127c-14.086-13.164-21.125-30.5-21.125-52s7-38.707,21-51.625c14-12.914,31.332-19.375,52-19.375
		c20.664,0,37.957,6.461,51.875,19.375c13.914,12.918,20.875,30.125,20.875,51.625s-6.918,38.836-20.75,52
		c-13.836,13.168-31.086,19.75-51.75,19.75C584.319,205.877,566.944,199.295,552.862,186.127z M625.487,160.377
		c5.664-6,8.5-14.664,8.5-26c0-11.332-2.918-19.957-8.75-25.875c-5.836-5.914-12.75-8.875-20.75-8.875s-14.875,2.961-20.625,8.875
		c-5.75,5.918-8.625,14.543-8.625,25.875c0,11.336,2.957,20,8.875,26c5.914,6,12.875,9,20.875,9S619.819,166.377,625.487,160.377z"
		/>
	<path d="M680.987,106.627c0-12.332,5.25-22.664,15.75-31c10.5-8.332,24.707-12.5,42.625-12.5c17.914,0,32.375,4.086,43.375,12.25
		c11,8.168,16.832,19.336,17.5,33.5h-43.75c-0.5-4.832-2.168-8.125-5-9.875c-2.836-1.75-7.086-2.625-12.75-2.625
		c-11.168,0-16.75,3.418-16.75,10.25c0,6.168,6.832,10.418,20.5,12.75c13.832,2.336,26.414,5.918,37.75,10.75
		c5.832,2.336,10.707,6.211,14.625,11.625c3.914,5.418,5.875,12.043,5.875,19.875c0,13-5.586,23.625-16.75,31.875
		c-11.168,8.25-25.25,12.375-42.25,12.375s-31.168-3.875-42.5-11.625c-11.336-7.75-17.5-19.207-18.5-34.375h43.75
		c1.164,8.5,7.164,12.75,18,12.75c5,0,9.125-1.164,12.375-3.5c3.25-2.332,4.875-5.332,4.875-9c0-3.664-2.711-6.582-8.125-8.75
		c-5.418-2.164-11.961-4-19.625-5.5c-7.668-1.5-15.375-3.375-23.125-5.625s-14.336-6.164-19.75-11.75
		C683.694,122.92,680.987,115.627,680.987,106.627z"/>
</g>
</svg>
